<svg xmlns="http://www.w3.org/2000/svg" xmlns:xlink="http://www.w3.org/1999/xlink" width="474.5" height="279.5" viewBox="0 0 474.5 279.5">
  <defs>
    <filter id="Ellipse_2" x="29.5" y="77.5" width="145" height="145" filterUnits="userSpaceOnUse">
      <feOffset dx="10" dy="10" input="SourceAlpha"/>
      <feGaussianBlur stdDeviation="7.5" result="blur"/>
      <feFlood flood-opacity="0.988"/>
      <feComposite operator="in" in2="blur"/>
      <feComposite in="SourceGraphic"/>
    </filter>
    <filter id="Ellipse_3" x="87.5" y="34.5" width="145" height="145" filterUnits="userSpaceOnUse">
      <feOffset dx="10" dy="10" input="SourceAlpha"/>
      <feGaussianBlur stdDeviation="7.5" result="blur-2"/>
      <feFlood flood-opacity="0.988"/>
      <feComposite operator="in" in2="blur-2"/>
      <feComposite in="SourceGraphic"/>
    </filter>
    <filter id="Ellipse_4" x="163.5" y="2.5" width="193" height="194" filterUnits="userSpaceOnUse">
      <feOffset dx="10" dy="10" input="SourceAlpha"/>
      <feGaussianBlur stdDeviation="7.5" result="blur-3"/>
      <feFlood flood-opacity="0.988"/>
      <feComposite operator="in" in2="blur-3"/>
      <feComposite in="SourceGraphic"/>
    </filter>
    <filter id="Ellipse_5" x="279.5" y="51.5" width="145" height="145" filterUnits="userSpaceOnUse">
      <feOffset dx="10" dy="10" input="SourceAlpha"/>
      <feGaussianBlur stdDeviation="7.5" result="blur-4"/>
      <feFlood flood-opacity="0.988"/>
      <feComposite operator="in" in2="blur-4"/>
      <feComposite in="SourceGraphic"/>
    </filter>
    <filter id="Ellipse_6" x="103.5" y="109.5" width="145" height="145" filterUnits="userSpaceOnUse">
      <feOffset dx="10" dy="10" input="SourceAlpha"/>
      <feGaussianBlur stdDeviation="7.5" result="blur-5"/>
      <feFlood flood-opacity="0.988"/>
      <feComposite operator="in" in2="blur-5"/>
      <feComposite in="SourceGraphic"/>
    </filter>
    <filter id="Ellipse_7" x="179.5" y="134.5" width="145" height="145" filterUnits="userSpaceOnUse">
      <feOffset dx="10" dy="10" input="SourceAlpha"/>
      <feGaussianBlur stdDeviation="7.5" result="blur-6"/>
      <feFlood flood-opacity="0.988"/>
      <feComposite operator="in" in2="blur-6"/>
      <feComposite in="SourceGraphic"/>
    </filter>
    <filter id="Ellipse_8" x="251.5" y="127.5" width="145" height="145" filterUnits="userSpaceOnUse">
      <feOffset dx="10" dy="10" input="SourceAlpha"/>
      <feGaussianBlur stdDeviation="7.5" result="blur-7"/>
      <feFlood flood-opacity="0.988"/>
      <feComposite operator="in" in2="blur-7"/>
      <feComposite in="SourceGraphic"/>
    </filter>
    <filter id="Ellipse_9" x="329.5" y="84.5" width="145" height="145" filterUnits="userSpaceOnUse">
      <feOffset dx="10" dy="10" input="SourceAlpha"/>
      <feGaussianBlur stdDeviation="7.5" result="blur-8"/>
      <feFlood flood-opacity="0.988"/>
      <feComposite operator="in" in2="blur-8"/>
      <feComposite in="SourceGraphic"/>
    </filter>
    <filter id="Ellipse_20" x="0" y="62" width="160" height="160" filterUnits="userSpaceOnUse">
      <feOffset dx="15" dy="15" input="SourceAlpha"/>
      <feGaussianBlur stdDeviation="10" result="blur-9"/>
      <feFlood/>
      <feComposite operator="in" in2="blur-9"/>
      <feComposite in="SourceGraphic"/>
    </filter>
    <filter id="Ellipse_19" x="50" y="0" width="210" height="210" filterUnits="userSpaceOnUse">
      <feOffset dx="15" dy="15" input="SourceAlpha"/>
      <feGaussianBlur stdDeviation="10" result="blur-10"/>
      <feFlood/>
      <feComposite operator="in" in2="blur-10"/>
      <feComposite in="SourceGraphic"/>
    </filter>
    <filter id="Ellipse_21" x="165" y="62" width="130" height="130" filterUnits="userSpaceOnUse">
      <feOffset dx="15" dy="15" input="SourceAlpha"/>
      <feGaussianBlur stdDeviation="10" result="blur-11"/>
      <feFlood/>
      <feComposite operator="in" in2="blur-11"/>
      <feComposite in="SourceGraphic"/>
    </filter>
  </defs>
  <g id="cloud" transform="translate(-498 80)">
    <g id="cloud-1" transform="translate(631 -462)">
      <g transform="matrix(1, 0, 0, 1, -133, 382)" filter="url(#Ellipse_2)">
        <circle id="Ellipse_2-2" data-name="Ellipse 2" cx="50" cy="50" r="50" transform="translate(42 90)" fill="#fff"/>
      </g>
      <g transform="matrix(1, 0, 0, 1, -133, 382)" filter="url(#Ellipse_3)">
        <circle id="Ellipse_3-2" data-name="Ellipse 3" cx="50" cy="50" r="50" transform="translate(100 47)" fill="#fff"/>
      </g>
      <g transform="matrix(1, 0, 0, 1, -133, 382)" filter="url(#Ellipse_4)">
        <ellipse id="Ellipse_4-2" data-name="Ellipse 4" cx="74" cy="74.5" rx="74" ry="74.5" transform="translate(176 15)" fill="#fff"/>
      </g>
      <g transform="matrix(1, 0, 0, 1, -133, 382)" filter="url(#Ellipse_5)">
        <circle id="Ellipse_5-2" data-name="Ellipse 5" cx="50" cy="50" r="50" transform="translate(292 64)" fill="#fff"/>
      </g>
      <g transform="matrix(1, 0, 0, 1, -133, 382)" filter="url(#Ellipse_6)">
        <circle id="Ellipse_6-2" data-name="Ellipse 6" cx="50" cy="50" r="50" transform="translate(116 122)" fill="#fff"/>
      </g>
      <g transform="matrix(1, 0, 0, 1, -133, 382)" filter="url(#Ellipse_7)">
        <circle id="Ellipse_7-2" data-name="Ellipse 7" cx="50" cy="50" r="50" transform="translate(192 147)" fill="#fff"/>
      </g>
      <g transform="matrix(1, 0, 0, 1, -133, 382)" filter="url(#Ellipse_8)">
        <circle id="Ellipse_8-2" data-name="Ellipse 8" cx="50" cy="50" r="50" transform="translate(264 140)" fill="#fff"/>
      </g>
      <g transform="matrix(1, 0, 0, 1, -133, 382)" filter="url(#Ellipse_9)">
        <circle id="Ellipse_9-2" data-name="Ellipse 9" cx="50" cy="50" r="50" transform="translate(342 97)" fill="#fff"/>
      </g>
      <rect id="Rectangle_1" data-name="Rectangle 1" width="214" height="74" transform="translate(17 472)" fill="#fff"/>
      <ellipse id="Ellipse_10" data-name="Ellipse 10" cx="82.5" cy="51" rx="82.5" ry="51" transform="translate(-65 463)" fill="#fff"/>
      <ellipse id="Ellipse_11" data-name="Ellipse 11" cx="30.5" cy="38.5" rx="30.5" ry="38.5" transform="translate(105 536)" fill="#fff"/>
      <ellipse id="Ellipse_12" data-name="Ellipse 12" cx="15.5" cy="11.5" rx="15.5" ry="11.5" transform="translate(120 592)" fill="#fff"/>
      <ellipse id="Ellipse_13" data-name="Ellipse 13" cx="15.5" cy="11.5" rx="15.5" ry="11.5" transform="translate(118 595)" fill="#fff"/>
      <circle id="Ellipse_14" data-name="Ellipse 14" cx="50" cy="50" r="50" transform="translate(131 522)" fill="#fff"/>
      <circle id="Ellipse_15" data-name="Ellipse 15" cx="50" cy="50" r="50" transform="translate(-17 504)" fill="#fff"/>
      <ellipse id="Ellipse_16" data-name="Ellipse 16" cx="57.5" cy="56" rx="57.5" ry="56" transform="translate(10 440)" fill="#fff"/>
      <circle id="Ellipse_17" data-name="Ellipse 17" cx="50" cy="50" r="50" transform="translate(134 452)" fill="#fff"/>
      <ellipse id="Ellipse_18" data-name="Ellipse 18" cx="50" cy="46.5" rx="50" ry="46.5" transform="translate(183 474)" fill="#fff"/>
    </g>
    <g id="cloud-2" transform="translate(719.541 -422.089)">
      <g transform="matrix(1, 0, 0, 1, -221.54, 342.09)" filter="url(#Ellipse_20)">
        <circle id="Ellipse_20-2" data-name="Ellipse 20" cx="50" cy="50" r="50" transform="translate(15 77)" fill="#fff"/>
      </g>
      <g transform="matrix(1, 0, 0, 1, -221.54, 342.09)" filter="url(#Ellipse_19)">
        <circle id="Ellipse_19-2" data-name="Ellipse 19" cx="75" cy="75" r="75" transform="translate(65 15)" fill="#fff"/>
      </g>
      <g transform="matrix(1, 0, 0, 1, -221.54, 342.09)" filter="url(#Ellipse_21)">
        <circle id="Ellipse_21-2" data-name="Ellipse 21" cx="35" cy="35" r="35" transform="translate(180 77)" fill="#fff"/>
      </g>
      <ellipse id="Ellipse_22" data-name="Ellipse 22" cx="37" cy="35" rx="37" ry="35" transform="translate(-92.541 426.089)" fill="#fff"/>
      <ellipse id="Ellipse_23" data-name="Ellipse 23" cx="37" cy="35" rx="37" ry="35" transform="translate(-77.541 401.089)" fill="#fff"/>
      <ellipse id="Ellipse_24" data-name="Ellipse 24" cx="37" cy="48" rx="37" ry="48" transform="translate(-179.541 416.089)" fill="#fff"/>
      <circle id="Ellipse_25" data-name="Ellipse 25" cx="50" cy="50" r="50" transform="translate(-206.541 419.089)" fill="#fff"/>
    </g>
  </g>
</svg>
