<svg xmlns="http://www.w3.org/2000/svg" width="1024" height="589" viewBox="0 0 1024 589">
  <g id="mist" transform="translate(1666 -1395)">
    <g id="Rectangle_35" data-name="Rectangle 35" transform="translate(-1666 1501)" fill="#3e3e3e" stroke="#707070" stroke-width="1">
      <rect width="913" height="59" rx="29.5" stroke="none"/>
      <rect x="0.5" y="0.5" width="912" height="58" rx="29" fill="none"/>
    </g>
    <g id="Rectangle_37" data-name="Rectangle 37" transform="translate(-1512 1925)" fill="#3e3e3e" stroke="#707070" stroke-width="1">
      <rect width="591" height="59" rx="29.5" stroke="none"/>
      <rect x="0.5" y="0.5" width="590" height="58" rx="29" fill="none"/>
    </g>
    <g id="Rectangle_38" data-name="Rectangle 38" transform="translate(-1417 1819)" fill="#3e3e3e" stroke="#707070" stroke-width="1">
      <rect width="664" height="59" rx="29.5" stroke="none"/>
      <rect x="0.5" y="0.5" width="663" height="58" rx="29" fill="none"/>
    </g>
    <g id="Rectangle_39" data-name="Rectangle 39" transform="translate(-1666 1713)" fill="#3e3e3e" stroke="#707070" stroke-width="1">
      <rect width="661" height="59" rx="29.5" stroke="none"/>
      <rect x="0.5" y="0.5" width="660" height="58" rx="29" fill="none"/>
    </g>
    <g id="Rectangle_40" data-name="Rectangle 40" transform="translate(-1417 1607)" fill="#3e3e3e" stroke="#707070" stroke-width="1">
      <rect width="775" height="59" rx="29.5" stroke="none"/>
      <rect x="0.5" y="0.5" width="774" height="58" rx="29" fill="none"/>
    </g>
    <g id="Rectangle_41" data-name="Rectangle 41" transform="translate(-1417 1395)" fill="#3e3e3e" stroke="#707070" stroke-width="1">
      <rect width="367" height="59" rx="29.5" stroke="none"/>
      <rect x="0.5" y="0.5" width="366" height="58" rx="29" fill="none"/>
    </g>
  </g>
</svg>
