<svg xmlns="http://www.w3.org/2000/svg" xmlns:xlink="http://www.w3.org/1999/xlink" width="445" height="277" viewBox="0 0 445 277">
  <defs>
    <filter id="Ellipse_2" x="0" y="75" width="145" height="145" filterUnits="userSpaceOnUse">
      <feOffset dx="10" dy="10" input="SourceAlpha"/>
      <feGaussianBlur stdDeviation="7.5" result="blur"/>
      <feFlood flood-opacity="0.988"/>
      <feComposite operator="in" in2="blur"/>
      <feComposite in="SourceGraphic"/>
    </filter>
    <filter id="Ellipse_3" x="58" y="32" width="145" height="145" filterUnits="userSpaceOnUse">
      <feOffset dx="10" dy="10" input="SourceAlpha"/>
      <feGaussianBlur stdDeviation="7.5" result="blur-2"/>
      <feFlood flood-opacity="0.988"/>
      <feComposite operator="in" in2="blur-2"/>
      <feComposite in="SourceGraphic"/>
    </filter>
    <filter id="Ellipse_4" x="134" y="0" width="193" height="194" filterUnits="userSpaceOnUse">
      <feOffset dx="10" dy="10" input="SourceAlpha"/>
      <feGaussianBlur stdDeviation="7.5" result="blur-3"/>
      <feFlood flood-opacity="0.988"/>
      <feComposite operator="in" in2="blur-3"/>
      <feComposite in="SourceGraphic"/>
    </filter>
    <filter id="Ellipse_5" x="250" y="49" width="145" height="145" filterUnits="userSpaceOnUse">
      <feOffset dx="10" dy="10" input="SourceAlpha"/>
      <feGaussianBlur stdDeviation="7.5" result="blur-4"/>
      <feFlood flood-opacity="0.988"/>
      <feComposite operator="in" in2="blur-4"/>
      <feComposite in="SourceGraphic"/>
    </filter>
    <filter id="Ellipse_6" x="74" y="107" width="145" height="145" filterUnits="userSpaceOnUse">
      <feOffset dx="10" dy="10" input="SourceAlpha"/>
      <feGaussianBlur stdDeviation="7.5" result="blur-5"/>
      <feFlood flood-opacity="0.988"/>
      <feComposite operator="in" in2="blur-5"/>
      <feComposite in="SourceGraphic"/>
    </filter>
    <filter id="Ellipse_7" x="150" y="132" width="145" height="145" filterUnits="userSpaceOnUse">
      <feOffset dx="10" dy="10" input="SourceAlpha"/>
      <feGaussianBlur stdDeviation="7.5" result="blur-6"/>
      <feFlood flood-opacity="0.988"/>
      <feComposite operator="in" in2="blur-6"/>
      <feComposite in="SourceGraphic"/>
    </filter>
    <filter id="Ellipse_8" x="222" y="125" width="145" height="145" filterUnits="userSpaceOnUse">
      <feOffset dx="10" dy="10" input="SourceAlpha"/>
      <feGaussianBlur stdDeviation="7.5" result="blur-7"/>
      <feFlood flood-opacity="0.988"/>
      <feComposite operator="in" in2="blur-7"/>
      <feComposite in="SourceGraphic"/>
    </filter>
    <filter id="Ellipse_9" x="300" y="82" width="145" height="145" filterUnits="userSpaceOnUse">
      <feOffset dx="10" dy="10" input="SourceAlpha"/>
      <feGaussianBlur stdDeviation="7.5" result="blur-8"/>
      <feFlood flood-opacity="0.988"/>
      <feComposite operator="in" in2="blur-8"/>
      <feComposite in="SourceGraphic"/>
    </filter>
  </defs>
  <g id="scattered" transform="translate(103.5 -384.5)">
    <g transform="matrix(1, 0, 0, 1, -103.5, 384.5)" filter="url(#Ellipse_2)">
      <circle id="Ellipse_2-2" data-name="Ellipse 2" cx="50" cy="50" r="50" transform="translate(12.5 87.5)" fill="#fff"/>
    </g>
    <g transform="matrix(1, 0, 0, 1, -103.5, 384.5)" filter="url(#Ellipse_3)">
      <circle id="Ellipse_3-2" data-name="Ellipse 3" cx="50" cy="50" r="50" transform="translate(70.5 44.5)" fill="#fff"/>
    </g>
    <g transform="matrix(1, 0, 0, 1, -103.5, 384.5)" filter="url(#Ellipse_4)">
      <ellipse id="Ellipse_4-2" data-name="Ellipse 4" cx="74" cy="74.5" rx="74" ry="74.5" transform="translate(146.5 12.5)" fill="#fff"/>
    </g>
    <g transform="matrix(1, 0, 0, 1, -103.5, 384.5)" filter="url(#Ellipse_5)">
      <circle id="Ellipse_5-2" data-name="Ellipse 5" cx="50" cy="50" r="50" transform="translate(262.5 61.5)" fill="#fff"/>
    </g>
    <g transform="matrix(1, 0, 0, 1, -103.5, 384.5)" filter="url(#Ellipse_6)">
      <circle id="Ellipse_6-2" data-name="Ellipse 6" cx="50" cy="50" r="50" transform="translate(86.5 119.5)" fill="#fff"/>
    </g>
    <g transform="matrix(1, 0, 0, 1, -103.5, 384.5)" filter="url(#Ellipse_7)">
      <circle id="Ellipse_7-2" data-name="Ellipse 7" cx="50" cy="50" r="50" transform="translate(162.5 144.5)" fill="#fff"/>
    </g>
    <g transform="matrix(1, 0, 0, 1, -103.5, 384.5)" filter="url(#Ellipse_8)">
      <circle id="Ellipse_8-2" data-name="Ellipse 8" cx="50" cy="50" r="50" transform="translate(234.5 137.5)" fill="#fff"/>
    </g>
    <g transform="matrix(1, 0, 0, 1, -103.5, 384.5)" filter="url(#Ellipse_9)">
      <circle id="Ellipse_9-2" data-name="Ellipse 9" cx="50" cy="50" r="50" transform="translate(312.5 94.5)" fill="#fff"/>
    </g>
    <rect id="Rectangle_1" data-name="Rectangle 1" width="214" height="74" transform="translate(17 472)" fill="#fff"/>
    <ellipse id="Ellipse_10" data-name="Ellipse 10" cx="82.5" cy="51" rx="82.5" ry="51" transform="translate(-65 463)" fill="#fff"/>
    <ellipse id="Ellipse_11" data-name="Ellipse 11" cx="30.5" cy="38.5" rx="30.5" ry="38.5" transform="translate(105 536)" fill="#fff"/>
    <ellipse id="Ellipse_12" data-name="Ellipse 12" cx="15.5" cy="11.5" rx="15.5" ry="11.5" transform="translate(120 592)" fill="#fff"/>
    <ellipse id="Ellipse_13" data-name="Ellipse 13" cx="15.5" cy="11.5" rx="15.5" ry="11.5" transform="translate(118 595)" fill="#fff"/>
    <circle id="Ellipse_14" data-name="Ellipse 14" cx="50" cy="50" r="50" transform="translate(131 522)" fill="#fff"/>
    <circle id="Ellipse_15" data-name="Ellipse 15" cx="50" cy="50" r="50" transform="translate(-17 504)" fill="#fff"/>
    <ellipse id="Ellipse_16" data-name="Ellipse 16" cx="57.5" cy="56" rx="57.5" ry="56" transform="translate(10 440)" fill="#fff"/>
    <circle id="Ellipse_17" data-name="Ellipse 17" cx="50" cy="50" r="50" transform="translate(134 452)" fill="#fff"/>
    <ellipse id="Ellipse_18" data-name="Ellipse 18" cx="50" cy="46.5" rx="50" ry="46.5" transform="translate(183 474)" fill="#fff"/>
  </g>
</svg>
