<svg xmlns="http://www.w3.org/2000/svg" xmlns:xlink="http://www.w3.org/1999/xlink" width="308.6" height="310" viewBox="0 0 308.6 310">
  <defs>
    <filter id="Path_1" x="135.3" y="232" width="38" height="78" filterUnits="userSpaceOnUse">
      <feOffset dx="5" dy="5" input="SourceAlpha"/>
      <feGaussianBlur stdDeviation="3" result="blur"/>
      <feFlood flood-opacity="0.639"/>
      <feComposite operator="in" in2="blur"/>
      <feComposite in="SourceGraphic"/>
    </filter>
    <filter id="Path_2" x="135.3" y="0" width="38" height="78" filterUnits="userSpaceOnUse">
      <feOffset dx="5" dy="5" input="SourceAlpha"/>
      <feGaussianBlur stdDeviation="3" result="blur-2"/>
      <feFlood flood-opacity="0.639"/>
      <feComposite operator="in" in2="blur-2"/>
      <feComposite in="SourceGraphic"/>
    </filter>
    <filter id="Path_3" x="0" y="136" width="78" height="38" filterUnits="userSpaceOnUse">
      <feOffset dx="5" dy="5" input="SourceAlpha"/>
      <feGaussianBlur stdDeviation="3" result="blur-3"/>
      <feFlood flood-opacity="0.639"/>
      <feComposite operator="in" in2="blur-3"/>
      <feComposite in="SourceGraphic"/>
    </filter>
    <filter id="Path_4" x="230.6" y="133" width="78" height="38" filterUnits="userSpaceOnUse">
      <feOffset dx="5" dy="5" input="SourceAlpha"/>
      <feGaussianBlur stdDeviation="3" result="blur-4"/>
      <feFlood flood-opacity="0.639"/>
      <feComposite operator="in" in2="blur-4"/>
      <feComposite in="SourceGraphic"/>
    </filter>
    <filter id="Path_5" x="29.747" y="192.36" width="81.64" height="81.64" filterUnits="userSpaceOnUse">
      <feOffset dx="5" dy="5" input="SourceAlpha"/>
      <feGaussianBlur stdDeviation="3" result="blur-5"/>
      <feFlood flood-opacity="0.639"/>
      <feComposite operator="in" in2="blur-5"/>
      <feComposite in="SourceGraphic"/>
    </filter>
    <filter id="Path_6" x="193.48" y="34.014" width="81.64" height="81.64" filterUnits="userSpaceOnUse">
      <feOffset dx="5" dy="5" input="SourceAlpha"/>
      <feGaussianBlur stdDeviation="3" result="blur-6"/>
      <feFlood flood-opacity="0.639"/>
      <feComposite operator="in" in2="blur-6"/>
      <feComposite in="SourceGraphic"/>
    </filter>
    <filter id="Path_7" x="28.18" y="34.18" width="81.64" height="81.64" filterUnits="userSpaceOnUse">
      <feOffset dx="5" dy="5" input="SourceAlpha"/>
      <feGaussianBlur stdDeviation="3" result="blur-7"/>
      <feFlood flood-opacity="0.639"/>
      <feComposite operator="in" in2="blur-7"/>
      <feComposite in="SourceGraphic"/>
    </filter>
    <filter id="Path_8" x="198.78" y="197.346" width="81.64" height="81.64" filterUnits="userSpaceOnUse">
      <feOffset dx="5" dy="5" input="SourceAlpha"/>
      <feGaussianBlur stdDeviation="3" result="blur-8"/>
      <feFlood flood-opacity="0.639"/>
      <feComposite operator="in" in2="blur-8"/>
      <feComposite in="SourceGraphic"/>
    </filter>
    <filter id="Path_9" x="84.382" y="30.338" width="48.696" height="57.167" filterUnits="userSpaceOnUse">
      <feOffset dx="5" dy="5" input="SourceAlpha"/>
      <feGaussianBlur stdDeviation="3" result="blur-9"/>
      <feFlood flood-opacity="0.639"/>
      <feComposite operator="in" in2="blur-9"/>
      <feComposite in="SourceGraphic"/>
    </filter>
    <filter id="Path_10" x="169.522" y="30.338" width="48.696" height="57.167" filterUnits="userSpaceOnUse">
      <feOffset dx="5" dy="5" input="SourceAlpha"/>
      <feGaussianBlur stdDeviation="3" result="blur-10"/>
      <feFlood flood-opacity="0.639"/>
      <feComposite operator="in" in2="blur-10"/>
      <feComposite in="SourceGraphic"/>
    </filter>
    <filter id="Path_11" x="166.518" y="229.166" width="48.696" height="57.167" filterUnits="userSpaceOnUse">
      <feOffset dx="5" dy="5" input="SourceAlpha"/>
      <feGaussianBlur stdDeviation="3" result="blur-11"/>
      <feFlood flood-opacity="0.639"/>
      <feComposite operator="in" in2="blur-11"/>
      <feComposite in="SourceGraphic"/>
    </filter>
    <filter id="Path_12" x="93.386" y="229.166" width="48.696" height="57.167" filterUnits="userSpaceOnUse">
      <feOffset dx="5" dy="5" input="SourceAlpha"/>
      <feGaussianBlur stdDeviation="3" result="blur-12"/>
      <feFlood flood-opacity="0.639"/>
      <feComposite operator="in" in2="blur-12"/>
      <feComposite in="SourceGraphic"/>
    </filter>
    <filter id="Path_13" x="230.6" y="88.654" width="57.691" height="43.859" filterUnits="userSpaceOnUse">
      <feOffset dx="5" dy="5" input="SourceAlpha"/>
      <feGaussianBlur stdDeviation="3" result="blur-13"/>
      <feFlood flood-opacity="0.639"/>
      <feComposite operator="in" in2="blur-13"/>
      <feComposite in="SourceGraphic"/>
    </filter>
    <filter id="Path_14" x="21.875" y="94.654" width="57.691" height="43.859" filterUnits="userSpaceOnUse">
      <feOffset dx="5" dy="5" input="SourceAlpha"/>
      <feGaussianBlur stdDeviation="3" result="blur-14"/>
      <feFlood flood-opacity="0.639"/>
      <feComposite operator="in" in2="blur-14"/>
      <feComposite in="SourceGraphic"/>
    </filter>
    <filter id="Path_15" x="230.6" y="179.431" width="57.691" height="43.859" filterUnits="userSpaceOnUse">
      <feOffset dx="5" dy="5" input="SourceAlpha"/>
      <feGaussianBlur stdDeviation="3" result="blur-15"/>
      <feFlood flood-opacity="0.639"/>
      <feComposite operator="in" in2="blur-15"/>
      <feComposite in="SourceGraphic"/>
    </filter>
    <filter id="Path_16" x="25.609" y="171.487" width="57.691" height="43.859" filterUnits="userSpaceOnUse">
      <feOffset dx="5" dy="5" input="SourceAlpha"/>
      <feGaussianBlur stdDeviation="3" result="blur-16"/>
      <feFlood flood-opacity="0.639"/>
      <feComposite operator="in" in2="blur-16"/>
      <feComposite in="SourceGraphic"/>
    </filter>
    <filter id="Ellipse_1" x="61.8" y="62.5" width="205" height="205" filterUnits="userSpaceOnUse">
      <feOffset dx="15" dy="15" input="SourceAlpha"/>
      <feGaussianBlur stdDeviation="7.5" result="blur-17"/>
      <feFlood flood-opacity="0.675"/>
      <feComposite operator="in" in2="blur-17"/>
      <feComposite in="SourceGraphic"/>
    </filter>
  </defs>
  <g id="sun" transform="translate(-106.7 -71)">
    <g transform="matrix(1, 0, 0, 1, 106.7, 71)" filter="url(#Path_1)">
      <path id="Path_1-2" data-name="Path 1" d="M10-8.337C20.133-8.256,20,3.258,20,11S13.942,51.769,10,51.662,0,18.751,0,11-.134-8.419,10-8.337Z" transform="translate(139.3 244.34)" fill="#f8a715"/>
    </g>
    <g transform="matrix(1, 0, 0, 1, 106.7, 71)" filter="url(#Path_2)">
      <path id="Path_2-2" data-name="Path 2" d="M10-8.337C20.133-8.256,20,3.258,20,11S13.942,51.769,10,51.662,0,18.751,0,11-.134-8.419,10-8.337Z" transform="translate(159.3 55.66) rotate(180)" fill="#f8a715"/>
    </g>
    <g transform="matrix(1, 0, 0, 1, 106.7, 71)" filter="url(#Path_3)">
      <path id="Path_3-2" data-name="Path 3" d="M10-8.337C20.133-8.256,20,3.258,20,11S13.942,51.769,10,51.662,0,18.751,0,11-.134-8.419,10-8.337Z" transform="translate(55.66 140) rotate(90)" fill="#f8a715"/>
    </g>
    <g transform="matrix(1, 0, 0, 1, 106.7, 71)" filter="url(#Path_4)">
      <path id="Path_4-2" data-name="Path 4" d="M10-8.337C20.133-8.256,20,3.258,20,11S13.942,51.769,10,51.662,0,18.751,0,11-.134-8.419,10-8.337Z" transform="translate(242.94 157) rotate(-90)" fill="#f8a715"/>
    </g>
    <g transform="matrix(1, 0, 0, 1, 106.7, 71)" filter="url(#Path_5)">
      <path id="Path_5-2" data-name="Path 5" d="M15,0C30.2.082,30,11.6,30,19.342S20.914,60.107,15,60,0,27.089,0,19.342-.2-.081,15,0Z" transform="translate(76.17 196.36) rotate(45)" fill="#f8a715"/>
    </g>
    <g transform="matrix(1, 0, 0, 1, 106.7, 71)" filter="url(#Path_6)">
      <path id="Path_6-2" data-name="Path 6" d="M15,0C30.2.082,30,11.6,30,19.342S20.914,60.107,15,60,0,27.089,0,19.342-.2-.081,15,0Z" transform="translate(218.69 101.65) rotate(-135)" fill="#f8a715"/>
    </g>
    <g transform="matrix(1, 0, 0, 1, 106.7, 71)" filter="url(#Path_7)">
      <path id="Path_7-2" data-name="Path 7" d="M15,60c15.2-.081,15-11.6,15-19.342S20.914-.107,15,0,0,32.911,0,40.658-.2,60.081,15,60Z" transform="translate(32.18 59.39) rotate(-45)" fill="#f8a715"/>
    </g>
    <g transform="matrix(1, 0, 0, 1, 106.7, 71)" filter="url(#Path_8)">
      <path id="Path_8-2" data-name="Path 8" d="M15,60c15.2-.081,15-11.6,15-19.342S20.914-.107,15,0,0,32.911,0,40.658-.2,60.081,15,60Z" transform="translate(266.42 243.77) rotate(135)" fill="#f8a715"/>
    </g>
    <g transform="matrix(1, 0, 0, 1, 106.7, 71)" filter="url(#Path_9)">
      <path id="Path_9-2" data-name="Path 9" d="M7,37.143c7.093-.05,7-7.178,7-11.973S9.76-.066,7,0,0,20.374,0,25.169-.093,37.193,7,37.143Z" transform="translate(88.38 41.34) rotate(-30)" fill="#f8a715"/>
    </g>
    <g transform="matrix(1, 0, 0, 1, 106.7, 71)" filter="url(#Path_10)">
      <path id="Path_10-2" data-name="Path 10" d="M7,0c7.093.05,7,7.178,7,11.973S9.76,37.209,7,37.143,0,16.769,0,11.974-.093-.05,7,0Z" transform="translate(185.65 73.5) rotate(-150)" fill="#f8a715"/>
    </g>
    <g transform="matrix(1, 0, 0, 1, 106.7, 71)" filter="url(#Path_11)">
      <path id="Path_11-2" data-name="Path 11" d="M7,37.143c7.093-.05,7-7.178,7-11.973S9.76-.066,7,0,0,20.374,0,25.169-.093,37.193,7,37.143Z" transform="translate(201.21 265.33) rotate(150)" fill="#f8a715"/>
    </g>
    <g transform="matrix(1, 0, 0, 1, 106.7, 71)" filter="url(#Path_12)">
      <path id="Path_12-2" data-name="Path 12" d="M7,0c7.093.05,7,7.178,7,11.973S9.76,37.209,7,37.143,0,16.769,0,11.974-.093-.05,7,0Z" transform="translate(115.96 233.17) rotate(30)" fill="#f8a715"/>
    </g>
    <g transform="matrix(1, 0, 0, 1, 106.7, 71)" filter="url(#Path_13)">
      <path id="Path_13-2" data-name="Path 13" d="M7,0c7.093.05,7,7.178,7,11.973S9.76,37.209,7,37.143,0,16.769,0,11.974-.093-.05,7,0Z" transform="translate(239.39 118.51) rotate(-110)" fill="#f8a715"/>
    </g>
    <g transform="matrix(1, 0, 0, 1, 106.7, 71)" filter="url(#Path_14)">
      <path id="Path_14-2" data-name="Path 14" d="M7,37.143c7.093-.05,7-7.178,7-11.973S9.76-.066,7,0,0,20.374,0,25.169-.093,37.193,7,37.143Z" transform="translate(25.88 111.81) rotate(-70)" fill="#f8a715"/>
    </g>
    <g transform="matrix(1, 0, 0, 1, 106.7, 71)" filter="url(#Path_15)">
      <path id="Path_15-2" data-name="Path 15" d="M7,37.143c7.093-.05,7-7.178,7-11.973S9.76-.066,7,0,0,20.374,0,25.169-.093,37.193,7,37.143Z" transform="translate(274.29 196.13) rotate(110)" fill="#f8a715"/>
    </g>
    <g transform="matrix(1, 0, 0, 1, 106.7, 71)" filter="url(#Path_16)">
      <path id="Path_16-2" data-name="Path 16" d="M7,0c7.093.05,7,7.178,7,11.973S9.76,37.209,7,37.143,0,16.769,0,11.974-.093-.05,7,0Z" transform="translate(64.51 175.49) rotate(70)" fill="#f8a715"/>
    </g>
    <g transform="matrix(1, 0, 0, 1, 106.7, 71)" filter="url(#Ellipse_1)">
      <circle id="Ellipse_1-2" data-name="Ellipse 1" cx="80" cy="80" r="80" transform="translate(69.3 70)" fill="#f8a715"/>
    </g>
  </g>
</svg>
