<?xml version="1.0" encoding="UTF-8" standalone="no"?>
<!DOCTYPE svg PUBLIC "-//W3C//DTD SVG 1.1//EN" "http://www.w3.org/Graphics/SVG/1.1/DTD/svg11.dtd">
<!-- Created with Vectornator (http://vectornator.io/) -->
<svg height="100%" stroke-miterlimit="10" style="fill-rule:nonzero;clip-rule:evenodd;stroke-linecap:round;stroke-linejoin:round;" version="1.1" viewBox="0 0 512 512" width="100%" xml:space="preserve" xmlns="http://www.w3.org/2000/svg" xmlns:vectornator="http://vectornator.io" xmlns:xlink="http://www.w3.org/1999/xlink">
<defs/>
<clipPath id="ArtboardFrame">
<rect height="512" width="512" x="0" y="0"/>
</clipPath>
<g clip-path="url(#ArtboardFrame)" id="Untitled" vectornator:layerName="Untitled">
<path d="M274.964 32.476L274.964 18.963C274.964 8.49 266.473 0 256.001 0C245.529 0 237.038 8.49 237.038 18.963L237.038 32.476C130.872 42.089 47.406 131.574 47.406 240.2C47.406 248.78 53.166 256.29 61.45 258.515C63.085 258.954 64.737 259.166 66.37 259.166C73.013 259.166 79.331 255.66 82.779 249.702C89.175 238.655 101.052 231.791 113.776 231.791C126.5 231.791 138.376 238.656 144.772 249.702C148.163 255.559 154.417 259.163 161.183 259.163C167.95 259.163 174.204 255.557 177.594 249.702C183.99 238.655 195.867 231.791 208.59 231.791C219.778 231.791 230.309 237.102 237.036 245.892L237.036 445.63C237.036 461.315 224.275 474.075 208.591 474.075C192.907 474.075 180.148 461.315 180.148 445.63C180.148 435.159 171.658 426.667 161.185 426.667C150.712 426.667 142.222 435.159 142.222 445.63C142.222 482.228 171.995 512.001 208.592 512.001C245.188 512.001 274.963 482.228 274.963 445.63L274.963 245.89C281.69 237.1 292.218 231.791 303.405 231.791C316.128 231.791 328.007 238.656 334.402 249.702C337.793 255.559 344.047 259.163 350.813 259.163C357.58 259.163 363.834 255.557 367.225 249.702C373.621 238.655 385.498 231.791 398.221 231.791C410.944 231.791 422.821 238.656 429.217 249.702C432.608 255.559 438.862 259.163 445.628 259.163L445.632 259.163C456.105 259.163 464.595 250.674 464.595 240.2C464.595 131.574 381.128 42.091 274.964 32.476Z" fill="#ffffff" fill-rule="evenodd" opacity="1" stroke="none"/>
</g>
</svg>
